<svg preserveAspectRatio="none" width="100%" height="100%" overflow="visible" style="display: block;" viewBox="0 0 22 22" fill="none" xmlns="http://www.w3.org/2000/svg">
<g id="svg" clip-path="url(#clip0_356_1823)">
<path id="Vector" d="M20.1667 10.1567V11C20.1655 12.9767 19.5255 14.9001 18.3419 16.4833C17.1583 18.0666 15.4947 19.2248 13.5991 19.7852C11.7035 20.3457 9.67748 20.2784 7.82326 19.5934C5.96904 18.9083 4.38593 17.6423 3.31004 15.984C2.23416 14.3257 1.72314 12.3641 1.8532 10.3916C1.98326 8.41918 2.74743 6.54163 4.03175 5.03898C5.31607 3.53633 7.05172 2.4891 8.97984 2.05347C10.908 1.61783 12.9252 1.81714 14.7308 2.62167" stroke="var(--stroke-0, #F97316)" stroke-width="1.83333"/>
<path id="Vector_2" d="M20.1667 3.66667L11 12.8425L8.25 10.0925" stroke="var(--stroke-0, #F97316)" stroke-width="1.83333"/>
</g>
<defs>
<clipPath id="clip0_356_1823">
<rect width="22" height="22" fill="white"/>
</clipPath>
</defs>
</svg>
